# xmcd
#
# Track frame offsets: 
#        150
#        23750
#        57329
#        84625
#        116588
#        143779
#        178747
#        204486
#        239058
#        259773
#        291175
#        322124
#
# Disc length: 4709 seconds
#
# Revision: 0
# Processed by: cddbd v1.5.2PL0 Copyright (c) Steve Scherf et al.
# Submitted via: ExactAudioCopy v0.99pb5
#
DISCID=b612630c
DTITLE=Various Artist - King Street Sounds Classics: Back To The 90's [CD1
DTITLE=)
DYEAR=2005
DGENRE=House
TTITLE0=Sabrynaah Pope - It Works For Me (King Street Club Mix)
TTITLE1=X Fade feat. Lavette - Good and Plenty Love (The Wild Pitch Mix)
TTITLE2=Danell Dixon - Dance Dance
TTITLE3=Ultra Nate - Party Girl (Turn Me Loose) (Satoshi Tomiie Interp
TTITLE3=retation)
TTITLE4=Johnny Dangerous - Emerald City (Dangerous Club Mix)
TTITLE5=Kimara Lovelace - When Can Our Love Begin (Timmy Regisford She
TTITLE5=lter Anthem)
TTITLE6=Tears Of Velva - The Way I Feel (4 Daye Club)
TTITLE7=Urban Soul feat. Ceybil Jeffries and Troyetta Knox - Love Is So 
TTITLE7=Nice (Malawi Rocks Funky Club Mix)
TTITLE8=Mood II Swing feat. Carol Sylvan - Closer To My Heart (Mood II
TTITLE8=Swing Original Mix)
TTITLE9=Urban Soul - What Do I Gotta Do (Eric Kupper Club Mix)
TTITLE10=Reggie Hall - Privately (King Street Club Mix)
TTITLE11=Sublevel feat. Tracy Hamlin - Time and Time Again (Basement Boy
TTITLE11=s Original Disco Mix)
EXTD=
EXTT0=
EXTT1=
EXTT2=
EXTT3=
EXTT4=
EXTT5=
EXTT6=
EXTT7=
EXTT8=
EXTT9=
EXTT10=
EXTT11=
PLAYORDER=
